<?xml version="1.0" standalone="no"?>
<!DOCTYPE svg PUBLIC "-//W3C//DTD SVG 20010904//EN"
 "http://www.w3.org/TR/2001/REC-SVG-20010904/DTD/svg10.dtd">
<svg version="1.0" xmlns="http://www.w3.org/2000/svg"
 width="1000.000000pt" height="1000.000000pt" viewBox="0 0 1000.000000 1000.000000"
 preserveAspectRatio="xMidYMid meet">
<metadata>
Created by potrace 1.14, written by Peter Selinger 2001-2017
</metadata>
<g transform="translate(0.000000,1000.000000) scale(0.100000,-0.100000)"
fill="#000000" stroke="none">
<path d="M2789 8368 c0 -2 -3 -1104 -6 -2450 l-6 -2448 587 0 586 0 0 840 0
840 -222 0 -223 0 0 -612 0 -613 -137 -3 -138 -3 0 706 0 705 495 0 495 0 0
225 0 225 -495 0 -495 0 0 1070 0 1070 140 0 140 0 0 -925 0 -925 443 -2 442
-3 3 -2227 2 -2228 600 0 600 0 0 1760 0 1760 -72 0 c-40 0 -144 1 -231 3
l-157 2 0 -1537 0 -1538 -140 0 -140 0 0 1630 0 1630 590 0 590 0 0 -930 0
-930 600 0 600 0 0 2450 0 2450 -595 0 -595 0 0 -835 0 -835 225 0 225 0 0
610 0 610 145 0 145 0 0 -682 c0 -376 -3 -693 -6 -705 l-6 -23 -807 0 -806 1
0 -221 0 -221 806 1 c767 0 807 -1 811 -18 7 -26 8 -220 1 -253 l-5 -29 -943
0 c-519 0 -950 3 -959 6 -15 6 -16 42 -16 363 1 196 1 362 1 369 -1 9 -97 12
-446 12 l-445 0 0 930 0 930 -590 0 c-324 0 -590 -1 -591 -2z m3991 -3753 l0
-705 -145 0 -145 0 0 705 0 705 145 0 145 0 0 -705z"/>
</g>
</svg>
